<svg id="visual" viewBox="0 0 900 600" width="900" height="600" xmlns="http://www.w3.org/2000/svg" xmlns:xlink="http://www.w3.org/1999/xlink" version="1.1"><rect x="0" y="0" width="900" height="600" fill="#000000"></rect><defs><linearGradient id="grad1_0" x1="33.3%" y1="100%" x2="100%" y2="0%"><stop offset="20%" stop-color="#ff0000" stop-opacity="1"></stop><stop offset="80%" stop-color="#ff0000" stop-opacity="1"></stop></linearGradient></defs><defs><linearGradient id="grad1_1" x1="33.3%" y1="100%" x2="100%" y2="0%"><stop offset="20%" stop-color="#ff0000" stop-opacity="1"></stop><stop offset="80%" stop-color="#db0000" stop-opacity="1"></stop></linearGradient></defs><defs><linearGradient id="grad1_2" x1="33.3%" y1="100%" x2="100%" y2="0%"><stop offset="20%" stop-color="#b80000" stop-opacity="1"></stop><stop offset="80%" stop-color="#db0000" stop-opacity="1"></stop></linearGradient></defs><defs><linearGradient id="grad1_3" x1="33.3%" y1="100%" x2="100%" y2="0%"><stop offset="20%" stop-color="#b80000" stop-opacity="1"></stop><stop offset="80%" stop-color="#960000" stop-opacity="1"></stop></linearGradient></defs><defs><linearGradient id="grad1_4" x1="33.3%" y1="100%" x2="100%" y2="0%"><stop offset="20%" stop-color="#760000" stop-opacity="1"></stop><stop offset="80%" stop-color="#960000" stop-opacity="1"></stop></linearGradient></defs><defs><linearGradient id="grad1_5" x1="33.3%" y1="100%" x2="100%" y2="0%"><stop offset="20%" stop-color="#760000" stop-opacity="1"></stop><stop offset="80%" stop-color="#000000" stop-opacity="1"></stop></linearGradient></defs><defs><linearGradient id="grad2_0" x1="0%" y1="100%" x2="66.7%" y2="0%"><stop offset="20%" stop-color="#ff0000" stop-opacity="1"></stop><stop offset="80%" stop-color="#ff0000" stop-opacity="1"></stop></linearGradient></defs><defs><linearGradient id="grad2_1" x1="0%" y1="100%" x2="66.7%" y2="0%"><stop offset="20%" stop-color="#db0000" stop-opacity="1"></stop><stop offset="80%" stop-color="#ff0000" stop-opacity="1"></stop></linearGradient></defs><defs><linearGradient id="grad2_2" x1="0%" y1="100%" x2="66.7%" y2="0%"><stop offset="20%" stop-color="#db0000" stop-opacity="1"></stop><stop offset="80%" stop-color="#b80000" stop-opacity="1"></stop></linearGradient></defs><defs><linearGradient id="grad2_3" x1="0%" y1="100%" x2="66.7%" y2="0%"><stop offset="20%" stop-color="#960000" stop-opacity="1"></stop><stop offset="80%" stop-color="#b80000" stop-opacity="1"></stop></linearGradient></defs><defs><linearGradient id="grad2_4" x1="0%" y1="100%" x2="66.7%" y2="0%"><stop offset="20%" stop-color="#960000" stop-opacity="1"></stop><stop offset="80%" stop-color="#760000" stop-opacity="1"></stop></linearGradient></defs><defs><linearGradient id="grad2_5" x1="0%" y1="100%" x2="66.7%" y2="0%"><stop offset="20%" stop-color="#000000" stop-opacity="1"></stop><stop offset="80%" stop-color="#760000" stop-opacity="1"></stop></linearGradient></defs><g transform="translate(900, 600)"><path d="M-351.5 0C-316.8 -23.1 -282.1 -46.2 -272.4 -73C-262.7 -99.7 -278.1 -130.2 -279.7 -161.5C-281.3 -192.8 -269.1 -225.1 -248.6 -248.6C-228.1 -272 -199.3 -286.7 -170.5 -295.3C-141.7 -303.9 -112.8 -306.5 -84.4 -314.9C-55.9 -323.3 -28 -337.4 0 -351.5L0 0Z" fill="#670000"></path><path d="M-293 0C-264 -19.3 -235 -38.5 -227 -60.8C-218.9 -83.1 -231.8 -108.5 -233.1 -134.6C-234.4 -160.7 -224.2 -187.6 -207.1 -207.1C-190.1 -226.7 -166.1 -238.9 -142.1 -246.1C-118.1 -253.3 -94 -255.4 -70.3 -262.4C-46.6 -269.4 -23.3 -281.2 0 -293L0 0Z" fill="#860000"></path><path d="M-234.4 0C-211.2 -15.4 -188 -30.8 -181.6 -48.7C-175.2 -66.5 -185.4 -86.8 -186.5 -107.7C-187.5 -128.6 -179.4 -150.1 -165.7 -165.7C-152.1 -181.4 -132.9 -191.1 -113.7 -196.9C-94.5 -202.6 -75.2 -204.4 -56.3 -209.9C-37.3 -215.5 -18.6 -224.9 0 -234.4L0 0Z" fill="#a60000"></path><path d="M-175.8 0C-158.4 -11.6 -141 -23.1 -136.2 -36.5C-131.4 -49.9 -139.1 -65.1 -139.9 -80.8C-140.7 -96.4 -134.5 -112.6 -124.3 -124.3C-114 -136 -99.7 -143.3 -85.3 -147.7C-70.8 -152 -56.4 -153.3 -42.2 -157.4C-28 -161.6 -14 -168.7 0 -175.8L0 0Z" fill="#c90000"></path><path d="M-117.2 0C-105.6 -7.7 -94 -15.4 -90.8 -24.3C-87.6 -33.2 -92.7 -43.4 -93.2 -53.8C-93.8 -64.3 -89.7 -75 -82.9 -82.9C-76 -90.7 -66.4 -95.6 -56.8 -98.4C-47.2 -101.3 -37.6 -102.2 -28.1 -105C-18.6 -107.8 -9.3 -112.5 0 -117.2L0 0Z" fill="#ed0000"></path><path d="M-58.6 0C-52.8 -3.9 -47 -7.7 -45.4 -12.2C-43.8 -16.6 -46.4 -21.7 -46.6 -26.9C-46.9 -32.1 -44.8 -37.5 -41.4 -41.4C-38 -45.3 -33.2 -47.8 -28.4 -49.2C-23.6 -50.7 -18.8 -51.1 -14.1 -52.5C-9.3 -53.9 -4.7 -56.2 0 -58.6L0 0Z" fill="#ff0000"></path></g><g transform="translate(0, 0)"><path d="M351.5 0C340 27.8 328.4 55.5 323.6 86.7C318.7 117.9 320.6 152.6 304.4 175.8C288.2 199 254 210.8 227 227C200 243.2 180.3 263.9 155.5 269.3C130.7 274.8 100.8 265.1 74 276.3C47.3 287.4 23.6 319.5 0 351.5L0 0Z" fill="#670000"></path><path d="M293 0C283.3 23.1 273.7 46.3 269.7 72.3C265.6 98.3 267.2 127.1 253.7 146.5C240.2 165.8 211.6 175.6 189.2 189.2C166.7 202.7 150.3 219.9 129.6 224.4C108.9 229 84 220.9 61.7 230.2C39.4 239.5 19.7 266.2 0 293L0 0Z" fill="#860000"></path><path d="M234.4 0C226.7 18.5 218.9 37 215.7 57.8C212.5 78.6 213.8 101.7 203 117.2C192.2 132.7 169.3 140.5 151.3 151.3C133.3 162.1 120.2 175.9 103.7 179.6C87.1 183.2 67.2 176.7 49.3 184.2C31.5 191.6 15.8 213 0 234.4L0 0Z" fill="#a60000"></path><path d="M175.8 0C170 13.9 164.2 27.8 161.8 43.4C159.4 59 160.3 76.3 152.2 87.9C144.1 99.5 127 105.4 113.5 113.5C100 121.6 90.2 131.9 77.8 134.7C65.3 137.4 50.4 132.5 37 138.1C23.6 143.7 11.8 159.7 0 175.8L0 0Z" fill="#c90000"></path><path d="M117.2 0C113.3 9.3 109.5 18.5 107.9 28.9C106.2 39.3 106.9 50.9 101.5 58.6C96.1 66.3 84.7 70.3 75.7 75.7C66.7 81.1 60.1 88 51.8 89.8C43.6 91.6 33.6 88.4 24.7 92.1C15.8 95.8 7.9 106.5 0 117.2L0 0Z" fill="#ed0000"></path><path d="M58.6 0C56.7 4.6 54.7 9.3 53.9 14.5C53.1 19.7 53.4 25.4 50.7 29.3C48 33.2 42.3 35.1 37.8 37.8C33.3 40.5 30.1 44 25.9 44.9C21.8 45.8 16.8 44.2 12.3 46C7.9 47.9 3.9 53.2 0 58.6L0 0Z" fill="#ff0000"></path></g></svg>