<svg id="visual" viewBox="0 0 900 600" width="900" height="600" xmlns="http://www.w3.org/2000/svg" xmlns:xlink="http://www.w3.org/1999/xlink" version="1.1"><rect x="0" y="0" width="900" height="600" fill="#000000"></rect><path d="M0 320L21.5 320.3C43 320.7 86 321.3 128.8 317C171.7 312.7 214.3 303.3 257.2 306.7C300 310 343 326 385.8 321.3C428.7 316.7 471.3 291.3 514.2 286C557 280.7 600 295.3 642.8 310.2C685.7 325 728.3 340 771.2 333.5C814 327 857 299 878.5 285L900 271L900 601L878.5 601C857 601 814 601 771.2 601C728.3 601 685.7 601 642.8 601C600 601 557 601 514.2 601C471.3 601 428.7 601 385.8 601C343 601 300 601 257.2 601C214.3 601 171.7 601 128.8 601C86 601 43 601 21.5 601L0 601Z" fill="#ff1100"></path><path d="M0 400L21.5 401.5C43 403 86 406 128.8 391.5C171.7 377 214.3 345 257.2 336C300 327 343 341 385.8 354C428.7 367 471.3 379 514.2 375C557 371 600 351 642.8 344.7C685.7 338.3 728.3 345.7 771.2 358.8C814 372 857 391 878.5 400.5L900 410L900 601L878.5 601C857 601 814 601 771.2 601C728.3 601 685.7 601 642.8 601C600 601 557 601 514.2 601C471.3 601 428.7 601 385.8 601C343 601 300 601 257.2 601C214.3 601 171.7 601 128.8 601C86 601 43 601 21.5 601L0 601Z" fill="#d20409"></path><path d="M0 454L21.5 449.2C43 444.3 86 434.7 128.8 430C171.7 425.3 214.3 425.7 257.2 422.3C300 419 343 412 385.8 419.2C428.7 426.3 471.3 447.7 514.2 445.5C557 443.3 600 417.7 642.8 404.2C685.7 390.7 728.3 389.3 771.2 402.2C814 415 857 442 878.5 455.5L900 469L900 601L878.5 601C857 601 814 601 771.2 601C728.3 601 685.7 601 642.8 601C600 601 557 601 514.2 601C471.3 601 428.7 601 385.8 601C343 601 300 601 257.2 601C214.3 601 171.7 601 128.8 601C86 601 43 601 21.5 601L0 601Z" fill="#a6000c"></path><path d="M0 488L21.5 480.7C43 473.3 86 458.7 128.8 450.2C171.7 441.7 214.3 439.3 257.2 442.3C300 445.3 343 453.7 385.8 457.2C428.7 460.7 471.3 459.3 514.2 462C557 464.7 600 471.3 642.8 473.3C685.7 475.3 728.3 472.7 771.2 477.7C814 482.7 857 495.3 878.5 501.7L900 508L900 601L878.5 601C857 601 814 601 771.2 601C728.3 601 685.7 601 642.8 601C600 601 557 601 514.2 601C471.3 601 428.7 601 385.8 601C343 601 300 601 257.2 601C214.3 601 171.7 601 128.8 601C86 601 43 601 21.5 601L0 601Z" fill="#7c0009"></path><path d="M0 541L21.5 539.3C43 537.7 86 534.3 128.8 526.8C171.7 519.3 214.3 507.7 257.2 509.8C300 512 343 528 385.8 533.2C428.7 538.3 471.3 532.7 514.2 532.8C557 533 600 539 642.8 542C685.7 545 728.3 545 771.2 544.5C814 544 857 543 878.5 542.5L900 542L900 601L878.5 601C857 601 814 601 771.2 601C728.3 601 685.7 601 642.8 601C600 601 557 601 514.2 601C471.3 601 428.7 601 385.8 601C343 601 300 601 257.2 601C214.3 601 171.7 601 128.8 601C86 601 43 601 21.5 601L0 601Z" fill="#540000"></path></svg>