<svg id="visual" viewBox="0 0 900 600" width="900" height="600" xmlns="http://www.w3.org/2000/svg" xmlns:xlink="http://www.w3.org/1999/xlink" version="1.1"><rect x="0" y="0" width="900" height="600" fill="#001220"></rect><path d="M0 428L21.5 415.3C43 402.7 86 377.3 128.8 369.8C171.7 362.3 214.3 372.7 257.2 376.5C300 380.3 343 377.7 385.8 381.7C428.7 385.7 471.3 396.3 514.2 401.3C557 406.3 600 405.7 642.8 396.2C685.7 386.7 728.3 368.3 771.2 373.3C814 378.3 857 406.7 878.5 420.8L900 435L900 601L878.5 601C857 601 814 601 771.2 601C728.3 601 685.7 601 642.8 601C600 601 557 601 514.2 601C471.3 601 428.7 601 385.8 601C343 601 300 601 257.2 601C214.3 601 171.7 601 128.8 601C86 601 43 601 21.5 601L0 601Z" fill="#fa7268"></path><path d="M0 438L21.5 435.7C43 433.3 86 428.7 128.8 424.5C171.7 420.3 214.3 416.7 257.2 424.3C300 432 343 451 385.8 450.8C428.7 450.7 471.3 431.3 514.2 419.3C557 407.3 600 402.7 642.8 412C685.7 421.3 728.3 444.7 771.2 446.5C814 448.3 857 428.7 878.5 418.8L900 409L900 601L878.5 601C857 601 814 601 771.2 601C728.3 601 685.7 601 642.8 601C600 601 557 601 514.2 601C471.3 601 428.7 601 385.8 601C343 601 300 601 257.2 601C214.3 601 171.7 601 128.8 601C86 601 43 601 21.5 601L0 601Z" fill="#ef5f67"></path><path d="M0 480L21.5 484C43 488 86 496 128.8 494.3C171.7 492.7 214.3 481.3 257.2 471.3C300 461.3 343 452.7 385.8 448.7C428.7 444.7 471.3 445.3 514.2 444.7C557 444 600 442 642.8 444C685.7 446 728.3 452 771.2 453C814 454 857 450 878.5 448L900 446L900 601L878.5 601C857 601 814 601 771.2 601C728.3 601 685.7 601 642.8 601C600 601 557 601 514.2 601C471.3 601 428.7 601 385.8 601C343 601 300 601 257.2 601C214.3 601 171.7 601 128.8 601C86 601 43 601 21.5 601L0 601Z" fill="#e34c67"></path><path d="M0 496L21.5 502.2C43 508.3 86 520.7 128.8 527.8C171.7 535 214.3 537 257.2 536.8C300 536.7 343 534.3 385.8 531.7C428.7 529 471.3 526 514.2 518.5C557 511 600 499 642.8 494.7C685.7 490.3 728.3 493.7 771.2 500.3C814 507 857 517 878.5 522L900 527L900 601L878.5 601C857 601 814 601 771.2 601C728.3 601 685.7 601 642.8 601C600 601 557 601 514.2 601C471.3 601 428.7 601 385.8 601C343 601 300 601 257.2 601C214.3 601 171.7 601 128.8 601C86 601 43 601 21.5 601L0 601Z" fill="#d53867"></path><path d="M0 571L21.5 564.8C43 558.7 86 546.3 128.8 541.7C171.7 537 214.3 540 257.2 542.3C300 544.7 343 546.3 385.8 546C428.7 545.7 471.3 543.3 514.2 540.3C557 537.3 600 533.7 642.8 531.2C685.7 528.7 728.3 527.3 771.2 528C814 528.7 857 531.3 878.5 532.7L900 534L900 601L878.5 601C857 601 814 601 771.2 601C728.3 601 685.7 601 642.8 601C600 601 557 601 514.2 601C471.3 601 428.7 601 385.8 601C343 601 300 601 257.2 601C214.3 601 171.7 601 128.8 601C86 601 43 601 21.5 601L0 601Z" fill="#c62368"></path></svg>